<?xml version="1.0" encoding="UTF-8"?><svg id="uuid-ab0fa52c-339a-423f-8598-20ed4fbd4072" xmlns="http://www.w3.org/2000/svg" viewBox="0 0 685.72 176.81"><defs><style>.uuid-21a7eeb3-5c37-4a7e-8a23-92df226f24a0{fill:#df6f1d;}.uuid-21a7eeb3-5c37-4a7e-8a23-92df226f24a0,.uuid-804ce429-9bc1-4b5a-b37b-f917c5341a96,.uuid-967538ac-f61c-4f90-8a16-68bf9ec89ead{stroke-width:0px;}.uuid-967538ac-f61c-4f90-8a16-68bf9ec89ead{fill:#a91611;}</style></defs><path class="uuid-967538ac-f61c-4f90-8a16-68bf9ec89ead" d="M60.18,50.9c13.98-.09,27.62,4.19,37.18,14.3,12.75,13.37,16.29,35.04,5.73,50.65-14.66,23.27-54.23,31.53-67.81,2.81-3.3-6.94-4.77-16.45-2.38-23.84,2.57-8.55,9.72-15.9,17.89-19.51,8.11-3.69,19.41-2.11,26.49,4.1,6.75,5.83,6.78,15.45,1.72,22.27-.83,1.31-2.38,2.65-2.39,4.25.13,1.32,1.77,1.91,2.81,2.46,2.35,1.16,4.41,2.57,6.7,3.85,1.67.85,1.49,3.04-.38,3.47-9.71,1.36-19.52,2.27-29.28,3.38-2.58.48-4.11-.55-3.45-3.29,1.88-8.7,3.88-17.34,5.87-25.99.24-1.69,1.25-3.16,3.13-2.39.78.31,1.29,1.03,1.65,1.77,1.26,2.65,2.5,5.3,3.71,7.97.59,1.28,1.33,3.25,2.81,2.29,14.2-12.87-9.8-25.9-23.73-11.6-11.65,11.38-6.93,31.98,7.46,38.58,16.41,8.15,38.02-3.81,44.99-20.03,3.49-8.32,2.7-18.09-.95-26-10.27-22.04-34.22-25.87-55.06-17.04-9.2,3.4-14.88,10.95-19.39,19.23-4.35,7.24-8.75,14.44-13.27,21.58-2.59,3.7-1.94,7.26,2.1,9.57,8.9,5.48,11.42,6.64,8.92,17.52-.76,5.12-3.75,13.21,3.21,14.6,1.86.5,5.22.7,7.65.8,18.2.28,39.07,5.66,44.03,25.58.6,2.06-.05,3.33-2.39,3.54-1.3.15-2.86,1.51-4.15.85-.72-.43-1.02-1.43-1.25-2.22-3.56-13.97-16.43-17.78-29.5-19.17-4.24-.51-8.53-.23-12.79-.68-9.95-1.1-15.36-7.51-13.9-17.22,1.45-7.34,2.97-14.35-5.47-18.33-6.02-2.2-8.03-8.66-5.77-14.36,5.87-11.31,12.98-21.94,19.69-32.82,9.65-14.99,24.29-19.58,39.41-20.93h.18Z"/><path class="uuid-21a7eeb3-5c37-4a7e-8a23-92df226f24a0" d="M62.02,34.78c48.88-.56,78.18,52.8,48.31,91.41-.96,1.48-2.36,2.84-4.16,1.45-2.35-1.48-1.35-3.29-.05-4.95,29.28-38.16-5.21-88.39-51.28-82.29-8.96,1.28-17.46,3.9-25.51,8.03-2.26,1.29-3.78-.38-3.98-2.63-.08-1.66,1.72-2.41,3.01-3.05,10.57-5.14,21.64-8.3,33.48-7.98h.18Z"/><path class="uuid-21a7eeb3-5c37-4a7e-8a23-92df226f24a0" d="M146.36,49.05c-1.35,7.48-8.82,9.56-14.83,12.05-3.11,1.2-6.01,2.43-8.98,4.05-.5.23-.96.29-1.29.15-1.22-.47-1.74-2.95-2.3-4.24-1.91-4.42-.02-5.53,2.83-6.51,1.24-.45,2.58-.64,3.9-.71,6.88-.25,13.73-.45,19.53-5,.38-.34,1.09-.82,1.13.02v.18Z"/><path class="uuid-21a7eeb3-5c37-4a7e-8a23-92df226f24a0" d="M140.25,141.55c-9.03-.23-14.22-8.51-22.29-11.21-1.19-.51-1-1.58-.56-2.58,3.13-7.87,7-6.78,11.37-1.49,2.22,2.6,4.09,5.37,6.37,7.81,2.25,2.44,4.91,4.43,8.45,5.46.6.21,1.28.81.75,1.38-1.04.53-2.86.48-3.94.64h-.16Z"/><path class="uuid-21a7eeb3-5c37-4a7e-8a23-92df226f24a0" d="M112.67,17.58c-.26,3.96-2.47,7.37-4.89,10.46-2.3,3.12-4.59,6.27-6.9,9.38-1.1,1.42-.74,3.38-3.56,2.05-1.92-.9-4.85-1.53-5.44-3.76-.46-2.71,1.64-5.38,3.72-6.93,5.81-3.93,12.22-7.18,15.06-14.19.36-1.04,1.14-1.21,1.72-.27.5.88.16,2.2.29,3.1v.16Z"/><path class="uuid-21a7eeb3-5c37-4a7e-8a23-92df226f24a0" d="M25.64,39.58c-.43.14-.93.21-1.35.1-3.66-1.55-4.66-7.02-4.77-10.61-.28-5.74-1.88-11.65-6.1-15.91-.55-.57.03-1.46.82-1.2,10.35,2.06,10.83,14.8,16.79,21.65.2.22.37.45.5.7.32.59.12,1.33-.43,1.73-1.29.95-3.82,2.76-5.47,3.52Z"/><path class="uuid-21a7eeb3-5c37-4a7e-8a23-92df226f24a0" d="M62.74.16c9.3,6.77,3.66,19.04,3.5,28.54-.02,1.24-1.35,1.4-2.36,1.47-2.99.2-6.64,1.79-7.43-2.85-.48-2.67.26-5.39,1.59-7.7,3.52-6.04,4.92-12.63,4.64-19.48l.06.02Z"/><path class="uuid-21a7eeb3-5c37-4a7e-8a23-92df226f24a0" d="M129.52,88.54c2.24-1.14,5.32-.38,7.51.6,5.75,2.96,11.29,6.6,18.07,6.04.53-.04,1.05-.07,1.56.05.52.1.97.19.61.71-1.95,3.21-6.1,3.58-9.51,3.55h-.16c-5.96.12-11.65-2.54-17.67-1.82-1.72.38-2.43-.07-2.18-2.25l.74-5.33c.09-.64.45-1.25,1.03-1.54Z"/><path class="uuid-21a7eeb3-5c37-4a7e-8a23-92df226f24a0" d="M40.11,21.88c.29-2.73-.59-5.64.49-8.37.08-.19.19-.28.32-.22,1.18,1,1.94,2.5,2.64,3.88,1.35,2.92,3.15,5.53,4.57,8.4,3.19,5.43.66,5.01-4.5,6.41-3.12.79-3.81-.89-3.55-3.64.1-1.91.01-3.99.02-6.32v-.15Z"/><path class="uuid-21a7eeb3-5c37-4a7e-8a23-92df226f24a0" d="M85.61,28.98c-.18,1.55-.44,3.83-1.71,4.61-1.02.81-3.65-.19-6.24-1.69-1.57-.85-2.54-1.32-1.26-3.09,2.62-4.34,5.21-8.69,7.87-13.01.31-.61.94-1.02,1.55-1.29.43,0,.41.9.52,1.22-.06,2.59-.51,11.49-.73,13.24Z"/><path class="uuid-21a7eeb3-5c37-4a7e-8a23-92df226f24a0" d="M113.2,52.13c-.39.49-1.13.49-1.54.02-1.64-1.9-3.36-3.96-4.43-6.23-.7-1.64,1.46-2.03,2.55-2.49,4.16-2.13,8.4-4.28,12.65-6.31.71-.4,2.56-.72,1.96.65-2.73,3.9-9.02,11.69-11.18,14.36Z"/><path class="uuid-21a7eeb3-5c37-4a7e-8a23-92df226f24a0" d="M135.49,73.15c2.9.39,5.95-.34,8.81.58.18.07.27.17.21.31-1.96,2.62-5.47,3.31-8.09,5.04-1.86.93-3.76,1.87-5.61,2.79-.91.41-2.06.94-2.84.55-1-.27-1.65-3.92-2.05-5.7-.75-2.97.33-3.92,3.18-3.6,2.09.14,4.15.02,6.24.02h.15Z"/><path class="uuid-21a7eeb3-5c37-4a7e-8a23-92df226f24a0" d="M134.01,116.32c-1.75-.11-3.56-.24-5.32-.31-1.34-.15-3.34.08-4.2-.94-.49-.51.01-2.43.55-4.09.58-1.94,1.4-5.53,4.08-4.13,3.9,2.4,7.83,4.7,11.81,7.01.73.51,2.48,1.51,1.34,2.42-.14.09-.31.13-.5.14-2.49-.21-5.32-.02-7.61-.1h-.15Z"/><polygon class="uuid-21a7eeb3-5c37-4a7e-8a23-92df226f24a0" points="62.65 .08 62.41 0 62.58 .14 62.65 .08"/><path class="uuid-967538ac-f61c-4f90-8a16-68bf9ec89ead" d="M164.06,75.06v-6.7h2.47l.02.42c.05.78.07,1.37.07,1.76,0,1.24.51,2.17,1.53,2.8,1.66,1.03,3.5,1.55,5.5,1.55s3.71-.59,4.89-1.77c1.18-1.18,1.76-2.82,1.76-4.9,0-1.76-.38-3.15-1.13-4.19-.75-1.03-2.22-2.16-4.4-3.39l-2.47-1.41c-5.33-3.01-7.99-6.29-7.99-9.85,0-2.68.96-4.9,2.88-6.65,1.92-1.75,4.33-2.63,7.23-2.63,1.25,0,2.61.12,4.08.36,1.47.24,3.04.62,4.71,1.12v6.18h-2.61l-.02-.4c-.05-.85-.08-1.47-.08-1.86,0-1.32-.47-2.28-1.41-2.9s-2.42-.93-4.43-.93c-1.68,0-3.04.55-4.09,1.66-1.04,1.11-1.57,2.56-1.57,4.36,0,1.54.36,2.81,1.08,3.81.72,1,2.02,2.04,3.9,3.1l2.47,1.41c3.42,1.94,5.72,3.64,6.91,5.08,1.19,1.44,1.79,3.25,1.79,5.43,0,2.9-1.08,5.31-3.23,7.23-2.16,1.92-4.85,2.88-8.08,2.88-1.88,0-3.64-.13-5.28-.4-1.64-.27-3.15-.66-4.53-1.18Z"/><path class="uuid-967538ac-f61c-4f90-8a16-68bf9ec89ead" d="M191.88,82.26v-6.37h2.75l.02.56.09,1.74c0,1.85.97,2.77,2.92,2.77,1.21,0,2.19-.5,2.96-1.49.77-1,1.15-2.28,1.15-3.84l-.02-3.34v-25.23c-.09-2.34-.27-3.66-.53-3.95-.26-.3-1.38-.51-3.37-.63l-.45-.05v-1.46h13.64v1.46l-.45.05c-1.91.12-3.04.39-3.39.8-.35.41-.52,1.67-.52,3.79v22.36c0,4.84-.81,8.27-2.44,10.27-1.63,2.02-4.41,3.03-8.35,3.03-1.25,0-2.59-.16-4.02-.47Z"/><path class="uuid-967538ac-f61c-4f90-8a16-68bf9ec89ead" d="M229.63,42.85h-5.55c-1.3,0-2.44.07-3.41.21-.64.09-.96.67-.96,1.74,0,.8-.02,1.49-.05,2.07l-.02.47h-2.47v-6.37h29.86v6.37h-2.47l-.02-.47c-.05-.58-.07-1.27-.07-2.07,0-1.07-.31-1.65-.94-1.74-.99-.14-2.12-.21-3.4-.21h-5.55v26.83c0,2.08.19,3.35.56,3.8.38.45,1.5.72,3.36.81l1.01.02v1.46h-14.79v-1.46l1.01-.02c1.87-.09,2.98-.36,3.35-.81s.55-1.71.55-3.8v-26.83Z"/><path class="uuid-967538ac-f61c-4f90-8a16-68bf9ec89ead" d="M278.39,75.77h-25.09v-1.46l.45-.02c1.9-.12,3.02-.4,3.37-.81.35-.42.53-1.68.53-3.8v-22.62c0-2.12-.18-3.38-.53-3.79-.35-.41-1.48-.67-3.37-.8l-.45-.05v-1.46h23.79v6.09h-2.61l-.05-.45c-.12-2.16-.29-3.33-.48-3.5-.2-.17-1.45-.26-3.77-.26h-7.59v13.92l6.37-.02c1.41,0,2.28-.07,2.6-.22.32-.15.51-.89.58-2.22l.02-.42h1.88v7.64h-1.88l-.02-.42c-.06-1.18-.25-1.88-.58-2.11s-1.19-.34-2.6-.34h-6.37v11.03c0,1.82.21,2.95.65,3.4.43.45,1.55.67,3.35.67h3.71c2.76,0,4.33-.14,4.71-.41.38-.27.63-1.45.74-3.52l.02-.42h2.61v6.37Z"/><path class="uuid-967538ac-f61c-4f90-8a16-68bf9ec89ead" d="M314.51,73.91c-3.15,1.82-6.82,2.73-11,2.73-5.34,0-9.56-1.64-12.64-4.91-3.08-3.28-4.62-7.75-4.62-13.43s1.48-10.22,4.44-13.41c2.96-3.19,7.12-4.79,12.46-4.79,2.73,0,6.31.58,10.75,1.74v6.65h-2.89l-.03-.47c-.02-.47-.04-.93-.06-1.39,0-1.54-.71-2.75-2.14-3.63-1.42-.89-3.37-1.33-5.82-1.33-3.52,0-6.33,1.5-8.43,4.51s-3.15,7.03-3.15,12.06,1.23,8.99,3.69,11.81c2.46,2.83,5.89,4.24,10.27,4.24,2.87,0,5.93-.89,9.17-2.66v2.26Z"/><path class="uuid-967538ac-f61c-4f90-8a16-68bf9ec89ead" d="M331.83,58.7v10.98c0,2.12.17,3.38.52,3.8.34.42,1.47.69,3.39.81l.45.02v1.46h-13.64v-1.46l.45-.02c1.9-.12,3.02-.4,3.37-.81.35-.42.53-1.68.53-3.8v-22.62c0-2.12-.18-3.38-.53-3.79-.35-.41-1.48-.67-3.37-.8l-.45-.05v-1.46h13.64v1.46l-.45.05c-1.91.12-3.04.39-3.39.8-.34.41-.52,1.67-.52,3.79v9.62h16.55v-9.62c0-2.12-.18-3.38-.53-3.79-.35-.41-1.49-.67-3.4-.8l-.42-.05v-1.46h13.64v1.46l-.45.05c-1.91.12-3.04.39-3.39.8-.34.41-.52,1.67-.52,3.79v22.62c0,2.12.17,3.38.52,3.8.34.42,1.47.69,3.39.81l.45.02v1.46h-13.64v-1.46l.42-.02c1.93-.12,3.06-.39,3.41-.8.34-.41.52-1.68.52-3.81v-10.98h-16.55Z"/><path class="uuid-967538ac-f61c-4f90-8a16-68bf9ec89ead" d="M384.6,75.06v-6.7h2.47l.02.42c.05.78.07,1.37.07,1.76,0,1.24.51,2.17,1.53,2.8,1.66,1.03,3.5,1.55,5.5,1.55s3.72-.59,4.89-1.77c1.18-1.18,1.76-2.82,1.76-4.9,0-1.76-.38-3.15-1.13-4.19-.75-1.03-2.22-2.16-4.4-3.39l-2.47-1.41c-5.33-3.01-7.99-6.29-7.99-9.85,0-2.68.96-4.9,2.88-6.65,1.92-1.75,4.33-2.63,7.23-2.63,1.25,0,2.61.12,4.08.36s3.04.62,4.71,1.12v6.18h-2.61l-.02-.4c-.05-.85-.08-1.47-.08-1.86,0-1.32-.47-2.28-1.41-2.9s-2.42-.93-4.43-.93c-1.68,0-3.04.55-4.09,1.66-1.04,1.11-1.57,2.56-1.57,4.36,0,1.54.36,2.81,1.08,3.81.72,1,2.02,2.04,3.9,3.1l2.47,1.41c3.42,1.94,5.72,3.64,6.91,5.08,1.19,1.44,1.79,3.25,1.79,5.43,0,2.9-1.08,5.31-3.23,7.23-2.16,1.92-4.85,2.88-8.08,2.88-1.88,0-3.64-.13-5.28-.4-1.64-.27-3.15-.66-4.53-1.18Z"/><path class="uuid-967538ac-f61c-4f90-8a16-68bf9ec89ead" d="M430.89,76.64c-5.05,0-9.03-1.63-11.94-4.89-2.91-3.26-4.37-7.72-4.37-13.38s1.46-10.12,4.37-13.38c2.91-3.26,6.89-4.89,11.94-4.89s9.03,1.63,11.94,4.89c2.91,3.26,4.37,7.72,4.37,13.38s-1.46,10.12-4.37,13.38-6.89,4.89-11.94,4.89ZM430.89,75.06c3.47,0,6.18-1.47,8.14-4.42,1.96-2.95,2.94-7.04,2.94-12.26s-.98-9.31-2.94-12.27c-1.96-2.96-4.68-4.44-8.14-4.44s-6.18,1.48-8.14,4.44c-1.96,2.96-2.94,7.05-2.94,12.27s.98,9.31,2.94,12.26c1.96,2.95,4.68,4.42,8.14,4.42Z"/><path class="uuid-967538ac-f61c-4f90-8a16-68bf9ec89ead" d="M479.93,75.77h-25.13v-1.46l.45-.02c1.9-.12,3.02-.4,3.37-.81.35-.42.53-1.68.53-3.8v-22.62c0-2.12-.18-3.38-.53-3.79-.35-.41-1.48-.67-3.37-.8l-.45-.05v-1.46h13.64v1.46l-.45.05c-1.91.12-3.04.39-3.39.8-.34.41-.52,1.67-.52,3.79v22.62c0,2.08.16,3.28.48,3.6s1.52.47,3.62.47h3.59c2.84,0,4.47-.16,4.88-.48.41-.32.68-1.65.79-3.99l.02-.47h2.47v6.96Z"/><path class="uuid-967538ac-f61c-4f90-8a16-68bf9ec89ead" d="M485.22,42.43v-1.46h13.71v1.46l-.42.05c-1.93.12-3.07.39-3.41.78s-.52,1.66-.52,3.8v14.88c0,3.6.09,5.95.28,7.04.19,1.1.66,2.14,1.41,3.12,1.52,1.97,3.79,2.96,6.82,2.96,2.84,0,5.11-.86,6.82-2.58.96-.97,1.58-2.04,1.87-3.21s.43-3.27.43-6.29v-15.92c0-2.12-.18-3.38-.53-3.79-.35-.41-1.49-.67-3.4-.8l-.42-.05v-1.46h11.14v1.46l-.45.05c-1.93.12-3.06.39-3.4.78s-.51,1.66-.51,3.8v14.58c0,3.23-.18,5.6-.54,7.1-.36,1.5-1.08,2.91-2.16,4.21-2.04,2.46-5.19,3.69-9.45,3.69-8.62,0-12.93-4.63-12.93-13.9v-15.68c0-2.12-.18-3.38-.53-3.79-.35-.41-1.48-.67-3.37-.8l-.45-.05Z"/><path class="uuid-967538ac-f61c-4f90-8a16-68bf9ec89ead" d="M537.17,42.85h-5.55c-1.3,0-2.44.07-3.41.21-.64.09-.96.67-.96,1.74,0,.8-.02,1.49-.05,2.07l-.02.47h-2.47v-6.37h29.86v6.37h-2.47l-.02-.47c-.05-.58-.07-1.27-.07-2.07,0-1.07-.31-1.65-.94-1.74-.99-.14-2.12-.21-3.4-.21h-5.55v26.83c0,2.08.19,3.35.56,3.8s1.5.72,3.36.81l1.01.02v1.46h-14.79v-1.46l1.01-.02c1.87-.09,2.98-.36,3.35-.81s.55-1.71.55-3.8v-26.83Z"/><path class="uuid-967538ac-f61c-4f90-8a16-68bf9ec89ead" d="M574.49,74.31v1.46h-13.64v-1.46l.45-.02c1.9-.12,3.02-.4,3.37-.81.35-.42.53-1.68.53-3.8v-22.62c0-2.12-.18-3.38-.53-3.79-.35-.41-1.48-.67-3.37-.8l-.45-.05v-1.46h13.64v1.46l-.45.05c-1.91.12-3.04.39-3.39.8-.34.41-.52,1.67-.52,3.79v22.62c0,2.12.17,3.38.52,3.8.34.42,1.47.69,3.39.81l.45.02Z"/><path class="uuid-967538ac-f61c-4f90-8a16-68bf9ec89ead" d="M598.49,76.64c-5.05,0-9.03-1.63-11.94-4.89-2.91-3.26-4.37-7.72-4.37-13.38s1.46-10.12,4.37-13.38c2.91-3.26,6.89-4.89,11.94-4.89s9.03,1.63,11.94,4.89c2.91,3.26,4.37,7.72,4.37,13.38s-1.46,10.12-4.37,13.38-6.89,4.89-11.94,4.89ZM598.49,75.06c3.47,0,6.18-1.47,8.14-4.42,1.96-2.95,2.94-7.04,2.94-12.26s-.98-9.31-2.94-12.27c-1.96-2.96-4.68-4.44-8.14-4.44s-6.18,1.48-8.14,4.44c-1.96,2.96-2.94,7.05-2.94,12.27s.98,9.31,2.94,12.26c1.96,2.95,4.68,4.42,8.14,4.42Z"/><path class="uuid-967538ac-f61c-4f90-8a16-68bf9ec89ead" d="M649.97,76.24l-21.02-29.16v22.6c0,2.13.17,3.4.52,3.8s1.48.67,3.41.81l.42.02v1.46h-10.89v-1.46l.42-.02c1.93-.14,3.06-.41,3.41-.81s.52-1.67.52-3.8v-22.62c0-2.14-.17-3.4-.51-3.8-.34-.4-1.47-.66-3.39-.78l-.44-.05v-1.46h7.88l19.3,27.02v-20.93c0-2.12-.18-3.38-.53-3.79-.35-.41-1.49-.67-3.4-.8l-.42-.05v-1.46h10.84v1.46l-.45.05c-1.91.12-3.04.39-3.39.8-.35.41-.52,1.67-.52,3.79v29.18h-1.76Z"/><path class="uuid-967538ac-f61c-4f90-8a16-68bf9ec89ead" d="M664.6,75.06v-6.7h2.47l.02.42c.05.78.07,1.37.07,1.76,0,1.24.51,2.17,1.53,2.8,1.66,1.03,3.5,1.55,5.5,1.55s3.72-.59,4.89-1.77c1.18-1.18,1.76-2.82,1.76-4.9,0-1.76-.38-3.15-1.13-4.19-.75-1.03-2.22-2.16-4.4-3.39l-2.47-1.41c-5.33-3.01-7.99-6.29-7.99-9.85,0-2.68.96-4.9,2.88-6.65,1.92-1.75,4.33-2.63,7.23-2.63,1.25,0,2.61.12,4.08.36s3.04.62,4.71,1.12v6.18h-2.61l-.02-.4c-.05-.85-.08-1.47-.08-1.86,0-1.32-.47-2.28-1.41-2.9s-2.42-.93-4.43-.93c-1.68,0-3.04.55-4.09,1.66-1.04,1.11-1.57,2.56-1.57,4.36,0,1.54.36,2.81,1.08,3.81.72,1,2.02,2.04,3.9,3.1l2.47,1.41c3.42,1.94,5.72,3.64,6.91,5.08,1.19,1.44,1.79,3.25,1.79,5.43,0,2.9-1.08,5.31-3.23,7.23-2.16,1.92-4.85,2.88-8.08,2.88-1.88,0-3.64-.13-5.28-.4-1.64-.27-3.15-.66-4.53-1.18Z"/><rect class="uuid-21a7eeb3-5c37-4a7e-8a23-92df226f24a0" x="253.31" y="81.49" width="361.49" height="32.37"/><path class="uuid-804ce429-9bc1-4b5a-b37b-f917c5341a96" d="M292.48,99.46v5.27c0,1.3.12,2.09.35,2.37.24.28.93.45,2.1.51h.63v.92h-8.85v-.91h.28c1.18-.09,1.88-.26,2.11-.52.22-.26.33-1.05.33-2.37v-14.11c0-1.32-.11-2.11-.33-2.36-.22-.25-.92-.42-2.11-.5l-.28-.03v-.91h6.41l2.12-.07,1.01-.03c4.19,0,6.29,1.91,6.29,5.73,0,2.33-.76,4.09-2.29,5.26-1.52,1.17-3.81,1.76-6.87,1.76h-.91ZM292.48,98.48h1.08c1.91,0,3.35-.5,4.3-1.5s1.43-2.49,1.43-4.47c0-1.69-.36-2.9-1.09-3.62-.73-.72-1.94-1.09-3.64-1.09h-2.08v10.68Z"/><path class="uuid-804ce429-9bc1-4b5a-b37b-f917c5341a96" d="M312.33,98.96v5.77c0,1.31.1,2.1.3,2.37.2.27.79.44,1.78.51h.28v.92h-8.13v-.91h.28c1.18-.09,1.88-.26,2.11-.52.22-.26.33-1.05.33-2.37v-14.11c0-1.32-.11-2.11-.33-2.36-.22-.25-.92-.42-2.11-.5l-.28-.03v-.91h5.2l2.63-.07,1.17-.03c4.47,0,6.71,1.83,6.71,5.48,0,3.04-1.48,5.07-4.45,6.1l4.22,6.4c.94,1.35,1.55,2.16,1.83,2.43.28.27.65.41,1.12.43.14.02.46.04.98.06h.29v.92h-5.54l-5.89-9.56h-2.52ZM312.36,97.98h1.08c3.8,0,5.7-1.81,5.7-5.44,0-1.72-.36-2.94-1.07-3.66-.71-.72-1.93-1.08-3.64-1.08h-2.07v10.18Z"/><path class="uuid-804ce429-9bc1-4b5a-b37b-f917c5341a96" d="M338.11,107.62v.91h-8.51v-.91h.28c1.18-.09,1.89-.26,2.11-.52.22-.26.33-1.05.33-2.37v-14.11c0-1.32-.11-2.11-.33-2.36-.22-.25-.92-.42-2.11-.5l-.28-.03v-.91h8.51v.91l-.28.03c-1.19.08-1.9.24-2.11.5-.21.25-.32,1.04-.32,2.36v14.11c0,1.32.11,2.11.32,2.37.21.26.92.43,2.11.51h.28Z"/><path class="uuid-804ce429-9bc1-4b5a-b37b-f917c5341a96" d="M351.67,108.81l-7.44-18.12c-.64-1.47-1.05-2.32-1.25-2.55-.2-.23-.62-.36-1.28-.39l-.31-.03v-.91h7.88v.91h-.32c-1.51,0-2.26.19-2.26.57,0,.16.29.95.88,2.39l5.62,13.67,5.28-13.69c.12-.29.22-.54.29-.75.31-.8.47-1.32.47-1.56,0-.43-.71-.64-2.13-.64h-.32v-.91h5.61v.91l-.32.03c-.67.03-1.09.14-1.24.32-.15.19-.54,1.05-1.15,2.6l-7.02,18.13h-.99Z"/><path class="uuid-804ce429-9bc1-4b5a-b37b-f917c5341a96" d="M370.51,101.84l-1.25,2.89c-.48,1.14-.72,1.9-.72,2.28,0,.41.63.62,1.89.62h.23v.91h-5.63v-.91h.31c.84-.05,1.34-.16,1.5-.33.16-.17.57-1.02,1.23-2.56l7.66-18.19h1.02l7.62,18.29c.6,1.31,1.02,2.09,1.26,2.34.24.25.72.39,1.44.43h.34v.92h-8.05v-.91h.26c1.37,0,2.05-.2,2.05-.59,0-.58-.21-1.34-.62-2.3l-1.22-2.89h-9.32ZM370.98,100.65h8.32l-4.13-9.89-4.19,9.89Z"/><path class="uuid-804ce429-9bc1-4b5a-b37b-f917c5341a96" d="M398.43,87.99h-3.46c-.81,0-1.52.04-2.13.13-.4.06-.6.42-.6,1.09,0,.5,0,.93-.03,1.29v.29h-1.55v-3.98h18.63v3.98h-1.54l-.02-.29c-.03-.36-.04-.79-.04-1.29,0-.66-.2-1.03-.59-1.09-.62-.09-1.32-.13-2.12-.13h-3.47v16.74c0,1.3.12,2.09.35,2.37.23.28.93.45,2.1.51h.63v.92h-9.23v-.91h.63c1.16-.07,1.86-.24,2.09-.52.23-.28.34-1.07.34-2.37v-16.74Z"/><path class="uuid-804ce429-9bc1-4b5a-b37b-f917c5341a96" d="M428.86,108.53h-15.65v-.91h.28c1.18-.09,1.89-.26,2.11-.52.22-.26.33-1.05.33-2.37v-14.11c0-1.32-.11-2.11-.33-2.36-.22-.25-.92-.42-2.11-.5l-.28-.03v-.91h14.85v3.8h-1.63l-.03-.28c-.08-1.35-.18-2.08-.3-2.19-.12-.11-.91-.16-2.35-.16h-4.74v8.68h3.97c.88-.01,1.42-.06,1.62-.15s.32-.56.36-1.39l.02-.26h1.17v4.77h-1.17l-.02-.26c-.04-.74-.16-1.18-.36-1.32s-.74-.21-1.62-.21h-3.97v6.88c0,1.13.13,1.84.4,2.12s.97.42,2.09.42h2.32c1.72,0,2.7-.08,2.94-.26.24-.17.39-.9.46-2.19v-.26h1.64v3.98Z"/><path class="uuid-804ce429-9bc1-4b5a-b37b-f917c5341a96" d="M460.34,108.53h-15.68v-.91h.28c1.18-.09,1.88-.26,2.11-.52.22-.26.33-1.05.33-2.37v-14.11c0-1.32-.11-2.11-.33-2.36-.22-.25-.92-.42-2.11-.5l-.28-.03v-.91h8.51v.91l-.28.03c-1.19.08-1.9.24-2.11.5-.21.25-.32,1.04-.32,2.36v14.11c0,1.3.1,2.05.3,2.25.2.2.95.29,2.26.29h2.24c1.77,0,2.79-.1,3.04-.3.26-.2.42-1.03.49-2.49l.02-.29h1.54v4.34Z"/><path class="uuid-804ce429-9bc1-4b5a-b37b-f917c5341a96" d="M472.54,107.62v.91h-8.51v-.91h.28c1.18-.09,1.88-.26,2.11-.52.22-.26.33-1.05.33-2.37v-14.11c0-1.32-.11-2.11-.33-2.36-.22-.25-.92-.42-2.11-.5l-.28-.03v-.91h8.51v.91l-.28.03c-1.19.08-1.9.24-2.11.5-.21.25-.32,1.04-.32,2.36v14.11c0,1.32.11,2.11.32,2.37.21.26.92.43,2.11.51h.28Z"/><path class="uuid-804ce429-9bc1-4b5a-b37b-f917c5341a96" d="M476.45,87.73v-.91h6.23l6.48,15.82,6.34-15.82h5.46v.91l-.28.03c-1.18.08-1.89.24-2.11.5-.22.25-.33,1.04-.33,2.36v14.11c0,1.32.11,2.11.33,2.37.22.26.92.43,2.11.51h.28v.92h-8.27v-.91h.26c1.18-.09,1.88-.26,2.1-.52.21-.26.32-1.05.32-2.37v-14.92l-6.8,16.99h-1.09l-6.71-17.22v15.15c0,1.32.11,2.11.33,2.37.22.26.92.43,2.11.51h.28v.92h-7.04v-.91h.28c1.18-.09,1.88-.26,2.11-.52.22-.26.33-1.05.33-2.37v-14.11c0-1.32-.11-2.11-.32-2.36-.22-.25-.92-.42-2.11-.5l-.28-.03Z"/><path class="uuid-804ce429-9bc1-4b5a-b37b-f917c5341a96" d="M513.45,107.62v.91h-8.51v-.91h.28c1.18-.09,1.88-.26,2.11-.52.22-.26.33-1.05.33-2.37v-14.11c0-1.32-.11-2.11-.33-2.36-.22-.25-.92-.42-2.11-.5l-.28-.03v-.91h8.51v.91l-.28.03c-1.19.08-1.9.24-2.11.5-.21.25-.32,1.04-.32,2.36v14.11c0,1.32.11,2.11.32,2.37.21.26.92.43,2.11.51h.28Z"/><path class="uuid-804ce429-9bc1-4b5a-b37b-f917c5341a96" d="M525.13,87.99h-3.46c-.81,0-1.52.04-2.13.13-.4.06-.6.42-.6,1.09,0,.5,0,.93-.03,1.29v.29h-1.55v-3.98h18.63v3.98h-1.54l-.02-.29c-.03-.36-.04-.79-.04-1.29,0-.66-.2-1.03-.59-1.09-.62-.09-1.32-.13-2.12-.13h-3.47v16.74c0,1.3.12,2.09.35,2.37.23.28.93.45,2.1.51h.63v.92h-9.23v-.91h.63c1.16-.07,1.86-.24,2.09-.52.23-.28.34-1.07.34-2.37v-16.74Z"/><path class="uuid-804ce429-9bc1-4b5a-b37b-f917c5341a96" d="M555.56,108.53h-15.65v-.91h.28c1.18-.09,1.89-.26,2.11-.52.22-.26.33-1.05.33-2.37v-14.11c0-1.32-.11-2.11-.33-2.36-.22-.25-.92-.42-2.11-.5l-.28-.03v-.91h14.85v3.8h-1.63l-.03-.28c-.08-1.35-.18-2.08-.3-2.19-.12-.11-.91-.16-2.35-.16h-4.74v8.68h3.97c.88-.01,1.42-.06,1.62-.15s.32-.56.36-1.39l.02-.26h1.17v4.77h-1.17l-.02-.26c-.04-.74-.16-1.18-.36-1.32s-.74-.21-1.62-.21h-3.97v6.88c0,1.13.13,1.84.4,2.12s.97.42,2.09.42h2.32c1.72,0,2.7-.08,2.94-.26.24-.17.39-.9.46-2.19v-.26h1.64v3.98Z"/><path class="uuid-804ce429-9bc1-4b5a-b37b-f917c5341a96" d="M559.57,108.53v-.91h.28c1.18-.09,1.88-.26,2.11-.52.22-.26.33-1.05.33-2.37v-14.11c0-1.32-.11-2.11-.33-2.36-.22-.25-.92-.42-2.11-.5l-.28-.03v-.91h6.94l2.27-.06h1.05c3.39-.01,6,.89,7.81,2.68,1.8,1.8,2.71,4.39,2.71,7.76s-.93,6.25-2.79,8.28c-1.86,2.03-4.4,3.04-7.61,3.04h-10.37ZM565.36,87.8v16.94c0,1.32.13,2.08.39,2.26.53.36,1.55.54,3.06.54,2.75,0,4.82-.83,6.2-2.49,1.38-1.66,2.06-4.15,2.06-7.46s-.74-5.95-2.22-7.49c-1.48-1.54-3.88-2.31-7.2-2.31h-2.31Z"/></svg>